<?xml version="1.0" standalone="no"?>
<!DOCTYPE svg PUBLIC "-//W3C//DTD SVG 20010904//EN"
 "http://www.w3.org/TR/2001/REC-SVG-20010904/DTD/svg10.dtd">
<svg version="1.0" xmlns="http://www.w3.org/2000/svg"
 width="432.000000pt" height="339.000000pt" viewBox="0 0 432.000000 339.000000"
 preserveAspectRatio="xMidYMid meet">

<g transform="translate(0.000000,339.000000) scale(0.100000,-0.100000)"
fill="#000000" stroke="none">
<path d="M0 3109 c0 -262 1 -280 18 -275 170 49 2057 546 2065 543 6 -2 -18
-10 -53 -17 l-65 -14 70 -17 c65 -17 73 -17 138 -1 l70 17 -64 16 c-35 10 -58
18 -50 18 7 1 462 -118 1010 -264 548 -147 1013 -270 1033 -276 l38 -10 2
-196 3 -197 25 -6 c14 -4 37 -10 53 -14 l27 -6 0 490 0 490 -2160 0 -2160 0 0
-281z"/>
<path d="M980 3081 l-965 -258 0 -113 0 -114 68 -17 68 -17 -3 111 -3 111 -65
17 c-36 9 -59 18 -51 18 7 1 39 -6 70 -14 51 -13 63 -12 126 4 l70 17 -65 14
c-35 7 -59 15 -53 17 6 2 37 -3 70 -11 53 -14 64 -14 128 3 l70 17 -65 14
c-35 7 -59 15 -53 17 6 2 37 -3 70 -11 53 -14 64 -14 128 3 l70 17 -65 14
c-35 7 -59 15 -53 17 6 2 37 -3 70 -11 53 -14 64 -14 128 3 l70 17 -65 14
c-35 7 -59 15 -53 17 6 2 37 -3 70 -11 53 -14 64 -14 128 3 l70 17 -65 14
c-35 7 -59 15 -53 17 6 2 37 -3 70 -11 53 -14 64 -14 128 3 l70 17 -65 14
c-35 7 -59 15 -53 17 6 2 37 -3 70 -11 53 -14 64 -14 128 3 l70 17 -65 14
c-35 7 -59 15 -53 17 6 2 37 -3 70 -11 53 -14 64 -14 128 3 l70 17 -65 14
c-35 7 -59 15 -53 17 6 2 37 -3 70 -11 53 -14 64 -14 128 3 l70 17 -65 14
c-35 7 -59 15 -53 17 6 2 37 -3 70 -11 53 -14 64 -14 128 3 l70 17 -65 14
c-35 7 -59 15 -53 17 6 2 37 -3 70 -11 53 -14 64 -14 128 3 l70 17 -65 14
c-35 7 -59 15 -53 17 6 2 37 -3 70 -11 53 -14 64 -14 128 3 l70 17 -65 14
c-35 7 -59 15 -53 17 6 2 38 -3 70 -11 52 -14 65 -14 113 -1 30 8 62 14 70 14
8 -1 -14 -9 -50 -18 l-65 -17 -3 -111 -3 -111 68 17 68 17 0 114 0 114 -70 18
c-38 9 -72 17 -75 17 -3 0 -439 -116 -970 -258z"/>
<path d="M2180 3321 l-65 -17 0 -114 0 -114 68 -17 68 -17 -3 111 -3 111 -65
17 c-36 9 -58 17 -50 18 8 0 40 -6 70 -14 48 -13 61 -13 113 1 32 8 64 13 70
11 6 -2 -18 -10 -53 -17 l-65 -14 70 -17 c64 -17 75 -17 128 -3 33 8 64 13 70
11 6 -2 -18 -10 -53 -17 l-65 -14 70 -17 c64 -17 75 -17 128 -3 33 8 64 13 70
11 6 -2 -18 -10 -53 -17 l-65 -14 70 -17 c64 -17 75 -17 128 -3 33 8 64 13 70
11 6 -2 -18 -10 -53 -17 l-65 -14 70 -17 c64 -17 75 -17 128 -3 33 8 64 13 70
11 6 -2 -18 -10 -53 -17 l-65 -14 70 -17 c64 -17 75 -17 128 -3 33 8 64 13 70
11 6 -2 -18 -10 -53 -17 l-65 -14 70 -17 c64 -17 75 -17 128 -3 33 8 64 13 70
11 6 -2 -18 -10 -53 -17 l-65 -14 70 -17 c64 -17 75 -17 128 -3 33 8 64 13 70
11 6 -2 -18 -10 -53 -17 l-65 -14 70 -17 c64 -17 75 -17 128 -3 33 8 64 13 70
11 6 -2 -18 -10 -53 -17 l-65 -14 70 -17 c64 -17 75 -17 128 -3 33 8 64 13 70
11 6 -2 -18 -10 -53 -17 l-65 -14 70 -17 c64 -17 75 -17 128 -3 33 8 64 13 70
11 6 -2 -18 -10 -53 -17 l-65 -14 70 -17 c64 -17 75 -17 128 -3 33 8 64 13 70
11 6 -2 -18 -10 -53 -17 l-65 -14 70 -17 c63 -16 75 -17 126 -4 31 8 63 15 70
14 8 0 -15 -9 -51 -18 l-65 -17 -3 -111 -3 -111 68 17 68 17 0 113 0 114 -950
253 c-522 139 -961 255 -975 258 -14 2 -54 -3 -90 -13z"/>
<path d="M1880 3240 l-65 -16 -3 -111 -3 -111 63 15 c35 9 67 19 71 23 4 4 6
54 5 111 l-3 105 -65 -16z"/>
<path d="M2262 3147 l3 -111 68 -17 68 -17 -3 111 -3 111 -68 17 -68 17 3
-111z"/>
<path d="M1730 3200 l-65 -16 -3 -111 -3 -111 63 15 c35 9 67 19 71 23 4 4 6
54 5 111 l-3 105 -65 -16z"/>
<path d="M2412 3107 l3 -111 68 -17 68 -17 -3 111 -3 111 -68 17 -68 17 3
-111z"/>
<path d="M1580 3160 l-65 -16 -3 -111 -3 -111 63 15 c35 9 67 19 71 23 4 4 6
54 5 111 l-3 105 -65 -16z"/>
<path d="M2562 3067 l3 -111 68 -17 68 -17 -3 111 -3 111 -68 17 -68 17 3
-111z"/>
<path d="M1430 3120 l-65 -16 -3 -111 -3 -111 63 15 c35 9 67 19 71 23 4 4 6
54 5 111 l-3 105 -65 -16z"/>
<path d="M2712 3027 l3 -111 68 -17 68 -17 -3 111 -3 111 -68 17 -68 17 3
-111z"/>
<path d="M1280 3080 l-65 -16 -3 -111 -3 -111 63 15 c35 9 67 19 71 23 4 4 6
54 5 111 l-3 105 -65 -16z"/>
<path d="M2862 2987 l3 -111 68 -17 68 -17 -3 111 -3 111 -68 17 -68 17 3
-111z"/>
<path d="M2030 3050 l-65 -16 -3 -111 -3 -111 63 15 c35 9 67 19 71 23 4 4 6
54 5 111 l-3 105 -65 -16z"/>
<path d="M2112 2957 l3 -111 68 -17 68 -17 -3 111 -3 111 -68 17 -68 17 3
-111z"/>
<path d="M1130 3040 l-65 -16 -3 -111 -3 -111 63 15 c35 9 67 19 71 23 4 4 6
54 5 111 l-3 105 -65 -16z"/>
<path d="M3012 2947 l3 -111 68 -17 68 -17 -3 111 -3 111 -68 17 -68 17 3
-111z"/>
<path d="M1880 3010 l-65 -16 -3 -111 -3 -111 63 15 c35 9 67 19 71 23 4 4 6
54 5 111 l-3 105 -65 -16z"/>
<path d="M2262 2917 l3 -111 68 -17 68 -17 -3 111 -3 111 -68 17 -68 17 3
-111z"/>
<path d="M980 3000 l-65 -16 -3 -111 -3 -111 63 15 c35 9 67 19 71 23 4 4 6
54 5 111 l-3 105 -65 -16z"/>
<path d="M3162 2907 l3 -111 68 -17 68 -17 -3 111 -3 111 -68 17 -68 17 3
-111z"/>
<path d="M1730 2970 l-65 -16 -3 -111 -3 -111 63 15 c35 9 67 19 71 23 4 4 6
54 5 111 l-3 105 -65 -16z"/>
<path d="M2412 2877 l3 -111 68 -17 68 -17 -3 111 -3 111 -68 17 -68 17 3
-111z"/>
<path d="M830 2960 l-65 -16 -3 -111 -3 -111 63 15 c35 9 67 19 71 23 4 4 6
54 5 111 l-3 105 -65 -16z"/>
<path d="M3312 2867 l3 -111 68 -17 68 -17 -3 111 -3 111 -68 17 -68 17 3
-111z"/>
<path d="M1580 2930 l-65 -16 -3 -111 -3 -111 63 15 c35 9 67 19 71 23 4 4 6
54 5 111 l-3 105 -65 -16z"/>
<path d="M2562 2837 l3 -111 68 -17 68 -17 -3 111 -3 111 -68 17 -68 17 3
-111z"/>
<path d="M680 2920 l-65 -16 -3 -111 -3 -111 63 15 c35 9 67 19 71 23 4 4 6
54 5 111 l-3 105 -65 -16z"/>
<path d="M3462 2827 l3 -111 68 -17 68 -17 -3 111 -3 111 -68 17 -68 17 3
-111z"/>
<path d="M1430 2890 l-65 -16 -3 -111 -3 -111 63 15 c35 9 67 19 71 23 4 4 6
54 5 111 l-3 105 -65 -16z"/>
<path d="M2712 2797 l3 -111 68 -17 68 -17 -3 111 -3 111 -68 17 -68 17 3
-111z"/>
<path d="M530 2880 l-65 -16 -3 -111 -3 -111 63 15 c35 9 67 19 71 23 4 4 6
54 5 111 l-3 105 -65 -16z"/>
<path d="M3612 2787 l3 -111 68 -17 68 -17 -3 111 -3 111 -68 17 -68 17 3
-111z"/>
<path d="M1280 2850 l-65 -16 -3 -111 -3 -111 63 15 c35 9 67 19 71 23 4 4 6
54 5 111 l-3 105 -65 -16z"/>
<path d="M2862 2757 l3 -111 68 -17 68 -17 -3 111 -3 111 -68 17 -68 17 3
-111z"/>
<path d="M380 2840 l-65 -16 -3 -111 -3 -111 63 15 c35 9 67 19 71 23 4 4 6
54 5 111 l-3 105 -65 -16z"/>
<path d="M3762 2747 l3 -111 68 -17 68 -17 -3 111 -3 111 -68 17 -68 17 3
-111z"/>
<path d="M2030 2820 l-65 -16 -3 -111 -3 -111 63 15 c35 9 67 19 71 23 4 4 6
54 5 111 l-3 105 -65 -16z"/>
<path d="M2112 2727 l3 -111 68 -17 68 -17 -3 111 -3 111 -68 17 -68 17 3
-111z"/>
<path d="M1130 2810 l-65 -16 -3 -111 -3 -111 63 15 c35 9 67 19 71 23 4 4 6
54 5 111 l-3 105 -65 -16z"/>
<path d="M3012 2717 l3 -111 68 -17 68 -17 -3 111 -3 111 -68 17 -68 17 3
-111z"/>
<path d="M230 2800 l-65 -16 -3 -111 -3 -111 63 15 c35 9 67 19 71 23 4 4 6
54 5 111 l-3 105 -65 -16z"/>
<path d="M3912 2707 l3 -111 68 -17 68 -17 -3 111 -3 111 -68 17 -68 17 3
-111z"/>
<path d="M1880 2780 l-65 -16 -3 -111 -3 -111 63 15 c35 9 67 19 71 23 4 4 6
54 5 111 l-3 105 -65 -16z"/>
<path d="M2262 2687 l3 -111 68 -17 68 -17 -3 111 -3 111 -68 17 -68 17 3
-111z"/>
<path d="M980 2770 l-65 -16 -3 -111 -3 -111 63 15 c35 9 67 19 71 23 4 4 6
54 5 111 l-3 105 -65 -16z"/>
<path d="M3162 2677 l3 -111 68 -17 68 -17 -3 111 -3 111 -68 17 -68 17 3
-111z"/>
<path d="M1730 2740 l-65 -16 -3 -111 -3 -111 63 15 c35 9 67 19 71 23 4 4 6
54 5 111 l-3 105 -65 -16z"/>
<path d="M2412 2647 l3 -111 68 -17 68 -17 -3 111 -3 111 -68 17 -68 17 3
-111z"/>
<path d="M830 2730 l-65 -16 -3 -111 -3 -111 63 15 c35 9 67 19 71 23 4 4 6
54 5 111 l-3 105 -65 -16z"/>
<path d="M3312 2637 l3 -111 68 -17 68 -17 -3 111 -3 111 -68 17 -68 17 3
-111z"/>
<path d="M1580 2700 l-65 -16 -3 -111 -3 -111 63 15 c35 9 67 19 71 23 4 4 6
54 5 111 l-3 105 -65 -16z"/>
<path d="M2562 2607 l3 -111 68 -17 68 -17 -3 111 -3 111 -68 17 -68 17 3
-111z"/>
<path d="M680 2690 l-65 -16 -3 -111 -3 -111 63 15 c35 9 67 19 71 23 4 4 6
54 5 111 l-3 105 -65 -16z"/>
<path d="M3462 2597 l3 -111 68 -17 68 -17 -3 111 -3 111 -68 17 -68 17 3
-111z"/>
<path d="M1430 2660 l-65 -16 -3 -111 -3 -111 63 15 c35 9 67 19 71 23 4 4 6
54 5 111 l-3 105 -65 -16z"/>
<path d="M2712 2567 l3 -111 68 -17 68 -17 -3 111 -3 111 -68 17 -68 17 3
-111z"/>
<path d="M530 2650 l-65 -16 -3 -111 -3 -111 63 15 c35 9 67 19 71 23 4 4 6
54 5 111 l-3 105 -65 -16z"/>
<path d="M3612 2557 l3 -111 68 -17 68 -17 -3 111 -3 111 -68 17 -68 17 3
-111z"/>
<path d="M1280 2620 l-65 -16 -3 -111 -3 -111 63 15 c35 9 67 19 71 23 4 4 6
54 5 111 l-3 105 -65 -16z"/>
<path d="M2862 2527 l3 -111 68 -17 68 -17 -3 111 -3 111 -68 17 -68 17 3
-111z"/>
<path d="M380 2610 l-65 -16 -3 -111 -3 -111 63 15 c35 9 67 19 71 23 4 4 6
54 5 111 l-3 105 -65 -16z"/>
<path d="M3762 2517 l3 -111 50 -13 c90 -23 86 -27 83 94 l-3 107 -68 17 -68
17 3 -111z"/>
<path d="M2030 2590 l-65 -16 -3 -111 -3 -111 63 15 c35 9 67 19 71 23 4 4 6
54 5 111 l-3 105 -65 -16z"/>
<path d="M2112 2497 l3 -111 68 -17 68 -17 -3 111 -3 111 -68 17 -68 17 3
-111z"/>
<path d="M1130 2580 l-65 -16 -3 -111 -3 -111 63 15 c35 9 67 19 71 23 4 4 6
54 5 111 l-3 105 -65 -16z"/>
<path d="M3012 2487 l3 -111 68 -17 68 -17 -3 111 -3 111 -68 17 -68 17 3
-111z"/>
<path d="M12 2477 l3 -111 68 -17 68 -17 -3 111 -3 111 -68 17 -68 17 3 -111z"/>
<path d="M230 2570 l-65 -16 0 -229 0 -229 68 -17 68 -17 -3 111 -3 111 -65
17 c-36 9 -58 17 -50 18 8 0 39 -6 69 -14 48 -12 62 -12 124 3 l69 16 -68 18
c-63 16 -74 16 -127 2 -33 -8 -64 -13 -70 -11 -6 2 17 9 52 17 34 7 65 18 67
25 3 6 3 56 2 111 l-3 100 -65 -16z"/>
<path d="M3910 2484 c0 -78 3 -102 13 -99 6 2 38 11 70 20 l58 16 -3 66 -3 67
-67 17 -68 17 0 -104z"/>
<path d="M4130 2571 l-65 -17 -3 -66 -3 -66 53 14 c29 7 61 11 71 8 15 -5 17
3 17 70 0 42 -1 76 -2 75 -2 0 -32 -9 -68 -18z"/>
<path d="M1880 2550 l-65 -16 -3 -111 -3 -111 63 15 c35 9 67 19 71 23 4 4 6
54 5 111 l-3 105 -65 -16z"/>
<path d="M2262 2457 l3 -111 68 -17 68 -17 -3 111 -3 111 -68 17 -68 17 3
-111z"/>
<path d="M980 2540 l-65 -16 -3 -111 -3 -111 63 15 c35 9 67 19 71 23 4 4 6
54 5 111 l-3 105 -65 -16z"/>
<path d="M3162 2447 l3 -111 68 -17 68 -17 -3 111 -3 111 -68 17 -68 17 3
-111z"/>
<path d="M1730 2510 l-65 -16 -3 -111 -3 -111 63 15 c35 9 67 19 71 23 4 4 6
54 5 111 l-3 105 -65 -16z"/>
<path d="M2412 2417 l3 -111 68 -17 68 -17 -3 111 -3 111 -68 17 -68 17 3
-111z"/>
<path d="M830 2500 l-65 -16 -3 -111 -3 -111 63 15 c35 9 67 19 71 23 4 4 6
54 5 111 l-3 105 -65 -16z"/>
<path d="M3312 2407 l3 -111 68 -17 68 -17 -3 111 -3 111 -68 17 -68 17 3
-111z"/>
<path d="M1580 2470 l-65 -16 -3 -111 -3 -111 63 15 c35 9 67 19 71 23 4 4 6
54 5 111 l-3 105 -65 -16z"/>
<path d="M2562 2377 l3 -111 68 -17 68 -17 -3 111 -3 111 -68 17 -68 17 3
-111z"/>
<path d="M680 2460 l-65 -16 0 -79 0 -80 62 -14 c35 -8 65 -12 68 -9 3 3 4 52
3 110 l-3 104 -65 -16z"/>
<path d="M3460 2369 c0 -82 3 -107 13 -104 6 2 38 11 70 20 l58 16 -3 71 -3
72 -67 17 -68 17 0 -109z"/>
<path d="M1430 2430 l-65 -16 -3 -111 -3 -111 63 15 c35 9 67 19 71 23 4 4 6
54 5 111 l-3 105 -65 -16z"/>
<path d="M2712 2337 l3 -111 68 -17 68 -17 -3 111 -3 111 -68 17 -68 17 3
-111z"/>
<path d="M530 2421 l-65 -17 0 -39 0 -39 68 -17 67 -17 0 74 c0 41 -1 74 -2
73 -2 0 -32 -9 -68 -18z"/>
<path d="M3610 2369 c0 -50 3 -67 13 -64 6 2 38 11 70 20 56 15 58 17 55 47
-3 30 -6 33 -70 49 l-68 17 0 -69z"/>
<path d="M4017 2401 l-138 -37 68 -16 c65 -16 73 -16 138 1 l70 17 -65 14
c-35 7 -59 15 -53 17 6 2 38 -3 70 -11 52 -14 65 -14 113 -1 30 8 62 14 70 14
8 -1 -14 -9 -50 -18 l-65 -17 -3 -111 -3 -111 68 17 68 17 0 114 0 114 -70 18
c-38 9 -72 17 -75 17 -3 0 -67 -17 -143 -38z"/>
<path d="M1280 2390 l-65 -16 -3 -111 -3 -111 63 15 c35 9 67 19 71 23 4 4 6
54 5 111 l-3 105 -65 -16z"/>
<path d="M2862 2297 l3 -111 68 -17 68 -17 -3 111 -3 111 -68 17 -68 17 3
-111z"/>
<path d="M381 2381 l-64 -16 67 -16 66 -16 0 33 c0 19 -1 34 -2 33 -2 0 -32
-8 -67 -18z"/>
<path d="M3760 2370 c0 -27 0 -27 45 -17 25 6 45 13 45 17 0 4 -20 11 -45 17
-45 10 -45 10 -45 -17z"/>
<path d="M2030 2360 l-65 -16 -3 -111 -3 -111 63 15 c35 9 67 19 71 23 4 4 6
54 5 111 l-3 105 -65 -16z"/>
<path d="M2112 2267 l3 -111 68 -17 68 -17 -3 111 -3 111 -68 17 -68 17 3
-111z"/>
<path d="M1130 2351 l-65 -17 -3 -87 c-2 -66 0 -87 10 -87 7 -1 38 -7 69 -14
l57 -14 1 119 c1 66 1 119 -1 118 -2 0 -32 -9 -68 -18z"/>
<path d="M3010 2259 c0 -59 3 -110 8 -112 4 -2 34 3 67 12 l60 16 0 79 0 80
-67 17 -68 17 0 -109z"/>
<path d="M12 2247 l3 -111 68 -17 68 -17 -3 111 -3 111 -68 17 -68 17 3 -111z"/>
<path d="M3646 2302 l-210 -56 67 -17 c63 -16 71 -16 134 0 l68 17 -65 14
c-35 7 -59 15 -53 17 6 2 37 -3 70 -11 53 -14 64 -14 128 3 l70 17 -65 14
c-35 7 -59 15 -53 17 6 2 38 -3 70 -11 52 -14 65 -14 113 -1 30 8 62 14 70 14
8 -1 -14 -9 -50 -18 l-65 -17 -3 -111 -3 -111 68 17 68 17 0 114 0 114 -70 18
c-38 9 -72 17 -75 17 -3 0 -99 -26 -214 -57z"/>
<path d="M4090 2340 l-65 -16 -3 -111 -3 -111 63 15 c35 9 67 19 71 23 4 4 6
54 5 111 l-3 105 -65 -16z"/>
<path d="M1880 2320 l-65 -16 -3 -111 -3 -111 63 15 c35 9 67 19 71 23 4 4 6
54 5 111 l-3 105 -65 -16z"/>
<path d="M2262 2227 l3 -111 68 -17 68 -17 -3 111 -3 111 -68 17 -68 17 3
-111z"/>
<path d="M980 2310 l-65 -16 -3 -45 -3 -45 68 -16 c37 -9 69 -15 71 -13 2 1 2
36 0 77 l-3 74 -65 -16z"/>
<path d="M3160 2254 l0 -74 28 6 c106 26 107 27 107 69 l0 39 -67 17 -68 17 0
-74z"/>
<path d="M380 2301 l-65 -17 0 -114 0 -114 68 -17 68 -17 -3 111 -3 111 -65
17 c-36 9 -58 17 -50 18 8 0 40 -6 70 -14 48 -13 61 -13 113 1 32 8 64 13 70
11 6 -2 -18 -10 -53 -17 l-65 -14 68 -17 c63 -16 71 -16 134 0 l67 17 -140 37
c-78 20 -143 37 -145 36 -2 0 -33 -9 -69 -18z"/>
<path d="M1730 2280 l-65 -16 -3 -111 -3 -111 63 15 c35 9 67 19 71 23 4 4 6
54 5 111 l-3 105 -65 -16z"/>
<path d="M2412 2187 l3 -111 68 -17 68 -17 -3 111 -3 111 -68 17 -68 17 3
-111z"/>
<path d="M840 2273 c-88 -22 -89 -24 -15 -44 38 -10 71 -16 73 -14 2 1 2 18 0
37 l-3 34 -55 -13z"/>
<path d="M3310 2253 c0 -28 3 -33 18 -29 9 3 37 10 61 16 23 6 41 13 40 15 -2
2 -30 10 -61 18 l-58 15 0 -35z"/>
<path d="M3790 2260 l-65 -16 -3 -111 -3 -111 63 15 c35 9 67 19 71 23 4 4 6
54 5 111 l-3 105 -65 -16z"/>
<path d="M1580 2240 l-65 -16 -3 -91 -3 -91 43 -8 c47 -8 79 -7 91 5 4 4 6 55
5 112 l-3 105 -65 -16z"/>
<path d="M2561 2140 l1 -118 62 15 c33 7 65 18 69 22 4 4 7 43 5 86 l-3 79
-68 17 -68 17 2 -118z"/>
<path d="M462 2127 l3 -111 50 -13 c79 -20 75 -25 75 95 l0 108 -65 16 -66 15
3 -110z"/>
<path d="M670 2221 l-65 -17 0 -114 0 -114 68 -17 68 -17 -3 111 -3 111 -65
17 c-36 9 -58 17 -50 18 8 0 40 -6 70 -14 48 -13 61 -13 113 1 32 8 64 13 70
11 6 -2 -18 -10 -53 -17 l-65 -14 70 -17 c64 -17 75 -17 128 -3 33 8 64 13 70
11 6 -2 -18 -10 -53 -17 l-65 -14 70 -17 c65 -17 73 -17 137 -1 l69 16 -218
58 c-120 32 -220 57 -223 57 -3 -1 -34 -9 -70 -18z"/>
<path d="M3207 2183 c-132 -36 -211 -53 -215 -46 -4 5 -35 17 -69 25 l-63 16
0 -39 c0 -22 1 -39 3 -39 1 0 27 7 57 15 50 13 61 13 130 -5 73 -18 77 -19
145 -1 l70 17 -65 14 c-35 7 -59 15 -53 17 6 2 37 -3 70 -11 53 -14 64 -14
128 3 l70 17 -65 14 c-35 7 -59 15 -53 17 6 2 38 -3 70 -11 52 -14 65 -14 113
-1 30 8 62 14 70 14 8 -1 -14 -9 -50 -18 l-65 -17 -3 -111 -3 -111 68 17 68
17 0 114 0 114 -70 18 c-38 9 -72 17 -75 17 -3 0 -99 -26 -213 -56z"/>
<path d="M3643 2221 l-63 -14 0 -109 c0 -69 4 -108 11 -108 19 0 104 23 112
30 4 4 6 54 5 111 l-3 104 -62 -14z"/>
<path d="M1430 2200 l-65 -16 -3 -50 -3 -50 68 -16 c37 -9 69 -15 71 -13 2 1
2 38 0 82 l-3 79 -65 -16z"/>
<path d="M2710 2139 l0 -79 28 6 c108 27 107 26 107 74 l0 44 -67 17 -68 17 0
-79z"/>
<path d="M1281 2160 c-36 -9 -66 -20 -68 -26 -3 -9 127 -47 135 -39 2 1 2 21
0 42 l-3 39 -64 -16z"/>
<path d="M4240 2150 l-65 -16 -3 -106 -3 -106 63 15 c35 9 67 19 71 23 4 4 6
52 5 106 l-3 100 -65 -16z"/>
<path d="M752 2047 l3 -111 68 -17 68 -17 -3 111 -3 111 -68 17 -68 17 3 -111z"/>
<path d="M3350 2140 l-65 -16 -3 -111 -3 -111 63 15 c35 9 67 19 71 23 4 4 6
54 5 111 l-3 105 -65 -16z"/>
<path d="M2030 2130 l-65 -16 -3 -96 -3 -96 30 -7 c37 -8 101 4 107 19 3 7 3
57 2 112 l-3 100 -65 -16z"/>
<path d="M2112 2037 l3 -111 29 -7 c16 -5 43 -3 65 4 l36 12 0 89 0 90 -68 17
-68 17 3 -111z"/>
<path d="M12 2022 l3 -106 68 -17 68 -17 -3 106 -3 106 -68 17 -68 17 3 -106z"/>
<path d="M4090 2110 l-65 -16 -3 -106 -3 -106 63 15 c35 9 67 19 71 23 4 4 6
52 5 106 l-3 100 -65 -16z"/>
<path d="M902 2007 l3 -111 68 -17 68 -17 -3 111 -3 111 -68 17 -68 17 3 -111z"/>
<path d="M1120 2101 l-65 -17 0 -114 0 -114 68 -17 68 -17 -3 111 -3 111 -65
17 c-36 9 -58 17 -50 18 8 0 40 -6 70 -14 48 -13 61 -13 113 1 32 8 64 13 70
11 6 -2 -18 -10 -53 -17 l-65 -14 70 -17 c64 -17 75 -17 128 -3 33 8 64 13 70
11 6 -2 -18 -10 -53 -17 l-65 -14 70 -18 c51 -12 80 -15 105 -8 19 5 54 14 78
20 23 6 42 15 42 20 0 6 -7 6 -18 -1 -14 -9 -63 1 -228 45 -115 31 -212 56
-214 55 -3 0 -34 -9 -70 -18z"/>
<path d="M2752 2061 l-213 -57 69 -16 c64 -16 72 -16 137 1 l70 17 -65 14
c-35 7 -59 15 -53 17 6 2 37 -3 70 -11 53 -14 64 -14 128 3 l70 17 -65 14
c-35 7 -59 15 -53 17 6 2 38 -3 70 -11 52 -14 65 -14 113 -1 30 8 62 14 70 14
8 -1 -14 -9 -50 -18 l-65 -17 -3 -111 -3 -111 68 17 68 17 0 114 0 114 -70 18
c-38 9 -72 17 -75 17 -3 0 -101 -26 -218 -58z"/>
<path d="M3200 2100 l-65 -16 -3 -111 -3 -111 63 15 c35 9 67 19 71 23 4 4 6
54 5 111 l-3 105 -65 -16z"/>
<path d="M1880 2090 l-65 -16 -3 -55 -3 -55 68 -16 c37 -9 69 -15 71 -13 1 1
2 40 0 87 l-3 84 -65 -16z"/>
<path d="M2260 2024 l0 -84 28 6 c109 27 107 25 107 79 l0 49 -67 17 -68 17 0
-84z"/>
<path d="M162 1982 l3 -106 68 -17 68 -17 -3 106 -3 106 -68 17 -68 17 3 -106z"/>
<path d="M3940 2070 l-65 -16 -3 -106 -3 -106 63 15 c35 9 67 19 71 23 4 4 6
52 5 106 l-3 100 -65 -16z"/>
<path d="M1730 2050 c-90 -22 -91 -41 -3 -62 37 -9 69 -15 71 -13 2 1 2 23 0
47 l-3 44 -65 -16z"/>
<path d="M2410 2024 c0 -43 1 -44 28 -38 71 18 103 30 103 39 0 5 -29 17 -65
26 l-66 17 0 -44z"/>
<path d="M312 1942 l3 -106 68 -17 68 -17 -3 106 -3 106 -68 17 -68 17 3 -106z"/>
<path d="M3790 2030 l-65 -16 -3 -106 -3 -106 63 15 c35 9 67 19 71 23 4 4 6
52 5 106 l-3 100 -65 -16z"/>
<path d="M1202 1927 l3 -111 68 -17 68 -17 -3 111 -3 111 -68 17 -68 17 3
-111z"/>
<path d="M2900 2020 l-65 -16 -3 -111 -3 -111 63 15 c35 9 67 19 71 23 4 4 6
54 5 111 l-3 105 -65 -16z"/>
<path d="M462 1902 l3 -106 50 -13 c79 -20 75 -25 75 90 l0 103 -65 16 -66 15
3 -105z"/>
<path d="M3643 1991 l-63 -14 0 -104 c0 -66 4 -103 11 -103 19 0 104 23 112
30 4 4 6 51 5 106 l-3 99 -62 -14z"/>
<path d="M1352 1887 l3 -111 68 -17 68 -17 -3 111 -3 111 -68 17 -68 17 3
-111z"/>
<path d="M1570 1981 l-65 -17 0 -114 0 -114 68 -17 68 -17 -3 111 -3 111 -65
17 c-36 9 -58 17 -50 18 8 0 40 -6 70 -14 48 -13 61 -13 113 1 32 8 64 13 70
11 6 -2 -18 -10 -53 -17 l-65 -14 68 -17 c61 -15 73 -15 123 -2 31 8 61 12 67
10 6 -2 -18 -10 -53 -17 l-65 -14 70 -17 c65 -17 73 -17 138 -1 l69 16 -63 17
c-35 9 -131 35 -214 58 -82 23 -152 41 -155 40 -3 0 -34 -9 -70 -18z"/>
<path d="M2480 1989 c-19 -6 -100 -28 -179 -50 -116 -33 -149 -39 -168 -30
-12 6 -23 6 -23 2 0 -5 8 -12 18 -14 12 -3 10 -5 -8 -7 -15 -1 2 -9 44 -20 66
-18 73 -18 139 -2 l70 17 -64 16 c-35 10 -57 17 -49 18 8 0 38 -5 67 -13 46
-12 60 -12 120 3 l68 17 -65 14 c-35 7 -59 15 -53 17 6 2 38 -3 70 -11 52 -14
65 -14 113 -1 30 8 62 14 70 14 8 -1 -14 -9 -50 -18 l-65 -17 -3 -111 -3 -111
68 17 68 17 0 114 0 114 -70 18 c-38 9 -72 17 -75 17 -3 -1 -21 -5 -40 -10z"/>
<path d="M2750 1980 l-65 -16 -3 -111 -3 -111 63 15 c35 9 67 19 71 23 4 4 6
54 5 111 l-3 105 -65 -16z"/>
<path d="M602 1862 l3 -106 68 -17 68 -17 -3 106 -3 106 -68 17 -68 17 3 -106z"/>
<path d="M3500 1950 l-65 -16 -3 -106 -3 -106 63 15 c35 9 67 19 71 23 4 4 6
52 5 106 l-3 100 -65 -16z"/>
<path d="M4240 1930 l-65 -16 -3 -111 -3 -111 63 15 c35 9 67 19 71 23 4 4 6
54 5 111 l-3 105 -65 -16z"/>
<path d="M752 1822 l3 -106 68 -17 68 -17 -3 106 -3 106 -68 17 -68 17 3 -106z"/>
<path d="M3350 1910 l-65 -16 -3 -106 -3 -106 63 15 c35 9 67 19 71 23 4 4 6
52 5 106 l-3 100 -65 -16z"/>
<path d="M1652 1807 l3 -111 50 -13 c79 -20 75 -25 75 95 l0 108 -65 16 -66
15 3 -110z"/>
<path d="M2070 1910 l-25 -6 23 -8 c24 -8 37 -3 31 12 -2 4 -15 5 -29 2z"/>
<path d="M2453 1901 l-63 -14 0 -109 c0 -69 4 -108 11 -108 19 0 104 23 112
30 4 4 6 54 5 111 l-3 104 -62 -14z"/>
<path d="M12 1797 l3 -111 68 -17 68 -17 -3 111 -3 111 -68 17 -68 17 3 -111z"/>
<path d="M4090 1890 l-65 -16 -3 -111 -3 -111 63 15 c35 9 67 19 71 23 4 4 6
54 5 111 l-3 105 -65 -16z"/>
<path d="M902 1782 l3 -106 68 -17 68 -17 -3 106 -3 106 -68 17 -68 17 3 -106z"/>
<path d="M3200 1870 l-65 -16 -3 -106 -3 -106 63 15 c35 9 67 19 71 23 4 4 6
52 5 106 l-3 100 -65 -16z"/>
<path d="M1792 1767 l3 -111 68 -17 68 -17 -3 111 -3 111 -68 17 -68 17 3
-111z"/>
<path d="M2010 1861 l-65 -17 0 -114 0 -114 68 -17 68 -17 -3 111 -3 111 -65
17 c-36 9 -59 18 -51 18 7 1 39 -6 70 -14 50 -13 63 -13 111 0 30 8 62 14 70
14 8 -1 -14 -9 -50 -18 l-65 -17 -3 -111 -3 -111 68 17 68 17 0 114 0 114 -70
18 c-38 9 -72 17 -75 17 -3 -1 -34 -9 -70 -18z"/>
<path d="M2310 1860 l-65 -16 -3 -111 -3 -111 63 15 c35 9 67 19 71 23 4 4 6
54 5 111 l-3 105 -65 -16z"/>
<path d="M162 1757 l3 -111 68 -17 68 -17 -3 111 -3 111 -68 17 -68 17 3 -111z"/>
<path d="M3940 1850 l-65 -16 -3 -111 -3 -111 63 15 c35 9 67 19 71 23 4 4 6
54 5 111 l-3 105 -65 -16z"/>
<path d="M1052 1742 l3 -106 68 -17 68 -17 -3 106 -3 106 -68 17 -68 17 3
-106z"/>
<path d="M3050 1830 l-65 -16 -3 -106 -3 -106 63 15 c35 9 67 19 71 23 4 4 6
52 5 106 l-3 100 -65 -16z"/>
<path d="M312 1717 l3 -111 68 -17 68 -17 -3 111 -3 111 -68 17 -68 17 3 -111z"/>
<path d="M3790 1810 l-65 -16 -3 -111 -3 -111 63 15 c35 9 67 19 71 23 4 4 6
54 5 111 l-3 105 -65 -16z"/>
<path d="M1202 1702 l3 -106 68 -17 68 -17 -3 106 -3 106 -68 17 -68 17 3
-106z"/>
<path d="M2900 1790 l-65 -16 -3 -106 -3 -106 63 15 c35 9 67 19 71 23 4 4 6
52 5 106 l-3 100 -65 -16z"/>
<path d="M462 1677 l3 -111 50 -13 c79 -20 75 -25 75 95 l0 108 -65 16 -66 15
3 -110z"/>
<path d="M3643 1771 l-63 -14 0 -109 c0 -69 4 -108 11 -108 19 0 104 23 112
30 4 4 6 54 5 111 l-3 104 -62 -14z"/>
<path d="M1352 1662 l3 -106 68 -17 68 -17 -3 106 -3 106 -68 17 -68 17 3
-106z"/>
<path d="M2750 1750 l-65 -16 -3 -106 -3 -106 63 15 c35 9 67 19 71 23 4 4 6
52 5 106 l-3 100 -65 -16z"/>
<path d="M602 1637 l3 -111 68 -17 68 -17 -3 111 -3 111 -68 17 -68 17 3 -111z"/>
<path d="M3500 1730 l-65 -16 -3 -111 -3 -111 63 15 c35 9 67 19 71 23 4 4 6
54 5 111 l-3 105 -65 -16z"/>
<path d="M1502 1622 l3 -106 68 -17 68 -17 -3 106 -3 106 -68 17 -68 17 3
-106z"/>
<path d="M2600 1710 l-65 -16 -3 -106 -3 -106 63 15 c35 9 67 19 71 23 4 4 6
52 5 106 l-3 100 -65 -16z"/>
<path d="M4240 1700 l-65 -16 -3 -106 -3 -106 63 15 c35 9 67 19 71 23 4 4 6
52 5 106 l-3 100 -65 -16z"/>
<path d="M752 1597 l3 -111 68 -17 68 -17 -3 111 -3 111 -68 17 -68 17 3 -111z"/>
<path d="M3350 1690 l-65 -16 -3 -111 -3 -111 63 15 c35 9 67 19 71 23 4 4 6
54 5 111 l-3 105 -65 -16z"/>
<path d="M1652 1582 l3 -106 50 -13 c79 -20 75 -25 75 90 l0 103 -65 16 -66
15 3 -105z"/>
<path d="M2453 1671 l-63 -14 0 -104 c0 -66 4 -103 11 -103 19 0 104 23 112
30 4 4 6 51 5 106 l-3 99 -62 -14z"/>
<path d="M12 1572 l3 -106 68 -17 68 -17 -3 106 -3 106 -68 17 -68 17 3 -106z"/>
<path d="M4090 1660 l-65 -16 -3 -106 -3 -106 63 15 c35 9 67 19 71 23 4 4 6
52 5 106 l-3 100 -65 -16z"/>
<path d="M902 1557 l3 -111 68 -17 68 -17 -3 111 -3 111 -68 17 -68 17 3 -111z"/>
<path d="M3200 1650 l-65 -16 -3 -111 -3 -111 63 15 c35 9 67 19 71 23 4 4 6
54 5 111 l-3 105 -65 -16z"/>
<path d="M1792 1542 l3 -106 68 -17 68 -17 -3 106 -3 106 -68 17 -68 17 3
-106z"/>
<path d="M2310 1630 l-65 -16 -3 -106 -3 -106 63 15 c35 9 67 19 71 23 4 4 6
52 5 106 l-3 100 -65 -16z"/>
<path d="M162 1532 l3 -106 68 -17 68 -17 -3 106 -3 106 -68 17 -68 17 3 -106z"/>
<path d="M3940 1620 l-65 -16 -3 -106 -3 -106 63 15 c35 9 67 19 71 23 4 4 6
52 5 106 l-3 100 -65 -16z"/>
<path d="M1052 1517 l3 -111 68 -17 68 -17 -3 111 -3 111 -68 17 -68 17 3
-111z"/>
<path d="M3050 1610 l-65 -16 -3 -111 -3 -111 63 15 c35 9 67 19 71 23 4 4 6
54 5 111 l-3 105 -65 -16z"/>
<path d="M1942 1502 l3 -106 68 -17 68 -17 -3 106 -3 106 -68 17 -68 17 3
-106z"/>
<path d="M2160 1590 l-65 -16 -3 -106 -3 -106 63 15 c35 9 67 19 71 23 4 4 6
52 5 106 l-3 100 -65 -16z"/>
<path d="M312 1492 l3 -106 68 -17 68 -17 -3 106 -3 106 -68 17 -68 17 3 -106z"/>
<path d="M3790 1580 l-65 -16 -3 -106 -3 -106 63 15 c35 9 67 19 71 23 4 4 6
52 5 106 l-3 100 -65 -16z"/>
<path d="M1202 1477 l3 -111 68 -17 68 -17 -3 111 -3 111 -68 17 -68 17 3
-111z"/>
<path d="M2900 1570 l-65 -16 -3 -111 -3 -111 63 15 c35 9 67 19 71 23 4 4 6
54 5 111 l-3 105 -65 -16z"/>
<path d="M462 1452 l3 -106 50 -13 c79 -20 75 -25 75 90 l0 103 -65 16 -66 15
3 -105z"/>
<path d="M3643 1541 l-63 -14 0 -104 c0 -66 4 -103 11 -103 19 0 104 23 112
30 4 4 6 51 5 106 l-3 99 -62 -14z"/>
<path d="M1352 1437 l3 -111 68 -17 68 -17 -3 111 -3 111 -68 17 -68 17 3
-111z"/>
<path d="M2750 1530 l-65 -16 -3 -111 -3 -111 63 15 c35 9 67 19 71 23 4 4 6
54 5 111 l-3 105 -65 -16z"/>
<path d="M602 1412 l3 -106 68 -17 68 -17 -3 106 -3 106 -68 17 -68 17 3 -106z"/>
<path d="M3500 1500 l-65 -16 -3 -106 -3 -106 63 15 c35 9 67 19 71 23 4 4 6
52 5 106 l-3 100 -65 -16z"/>
<path d="M1502 1397 l3 -111 68 -17 68 -17 -3 111 -3 111 -68 17 -68 17 3
-111z"/>
<path d="M2600 1490 l-65 -16 -3 -111 -3 -111 63 15 c35 9 67 19 71 23 4 4 6
54 5 111 l-3 105 -65 -16z"/>
<path d="M4240 1480 l-65 -16 -3 -111 -3 -111 63 15 c35 9 67 19 71 23 4 4 6
54 5 111 l-3 105 -65 -16z"/>
<path d="M752 1372 l3 -106 68 -17 68 -17 -3 106 -3 106 -68 17 -68 17 3 -106z"/>
<path d="M3350 1460 l-65 -16 -3 -106 -3 -106 63 15 c35 9 67 19 71 23 4 4 6
52 5 106 l-3 100 -65 -16z"/>
<path d="M1652 1357 l3 -111 50 -13 c79 -20 75 -25 75 95 l0 108 -65 16 -66
15 3 -110z"/>
<path d="M2453 1451 l-63 -14 0 -109 c0 -69 4 -108 11 -108 19 0 104 23 112
30 4 4 6 54 5 111 l-3 104 -62 -14z"/>
<path d="M12 1347 l3 -111 68 -17 68 -17 -3 111 -3 111 -68 17 -68 17 3 -111z"/>
<path d="M4090 1440 l-65 -16 -3 -111 -3 -111 63 15 c35 9 67 19 71 23 4 4 6
54 5 111 l-3 105 -65 -16z"/>
<path d="M902 1332 l3 -106 68 -17 68 -17 -3 106 -3 106 -68 17 -68 17 3 -106z"/>
<path d="M3200 1420 l-65 -16 -3 -106 -3 -106 63 15 c35 9 67 19 71 23 4 4 6
52 5 106 l-3 100 -65 -16z"/>
<path d="M1792 1317 l3 -111 68 -17 68 -17 -3 111 -3 111 -68 17 -68 17 3
-111z"/>
<path d="M2310 1410 l-65 -16 -3 -111 -3 -111 63 15 c35 9 67 19 71 23 4 4 6
54 5 111 l-3 105 -65 -16z"/>
<path d="M162 1307 l3 -111 68 -17 68 -17 -3 111 -3 111 -68 17 -68 17 3 -111z"/>
<path d="M3940 1400 l-65 -16 -3 -111 -3 -111 63 15 c35 9 67 19 71 23 4 4 6
54 5 111 l-3 105 -65 -16z"/>
<path d="M1052 1292 l3 -106 68 -17 68 -17 -3 106 -3 106 -68 17 -68 17 3
-106z"/>
<path d="M3050 1380 l-65 -16 -3 -106 -3 -106 63 15 c35 9 67 19 71 23 4 4 6
52 5 106 l-3 100 -65 -16z"/>
<path d="M1942 1277 l3 -111 68 -17 68 -17 -3 111 -3 111 -68 17 -68 17 3
-111z"/>
<path d="M2160 1370 l-65 -16 -3 -111 -3 -111 63 15 c35 9 67 19 71 23 4 4 6
54 5 111 l-3 105 -65 -16z"/>
<path d="M312 1267 l3 -111 68 -17 68 -17 -3 111 -3 111 -68 17 -68 17 3 -111z"/>
<path d="M3790 1360 l-65 -16 -3 -111 -3 -111 63 15 c35 9 67 19 71 23 4 4 6
54 5 111 l-3 105 -65 -16z"/>
<path d="M1202 1252 l3 -106 68 -17 68 -17 -3 106 -3 106 -68 17 -68 17 3
-106z"/>
<path d="M2900 1340 l-65 -16 -3 -106 -3 -106 63 15 c35 9 67 19 71 23 4 4 6
52 5 106 l-3 100 -65 -16z"/>
<path d="M462 1227 l3 -111 50 -13 c79 -20 75 -25 75 95 l0 108 -65 16 -66 15
3 -110z"/>
<path d="M3643 1321 l-63 -14 0 -109 c0 -69 4 -108 11 -108 19 0 104 23 112
30 4 4 6 54 5 111 l-3 104 -62 -14z"/>
<path d="M1352 1212 l3 -106 68 -17 68 -17 -3 106 -3 106 -68 17 -68 17 3
-106z"/>
<path d="M2750 1300 l-65 -16 -3 -106 -3 -106 63 15 c35 9 67 19 71 23 4 4 6
52 5 106 l-3 100 -65 -16z"/>
<path d="M602 1187 l3 -111 68 -17 68 -17 -3 111 -3 111 -68 17 -68 17 3 -111z"/>
<path d="M3500 1280 l-65 -16 -3 -111 -3 -111 63 15 c35 9 67 19 71 23 4 4 6
54 5 111 l-3 105 -65 -16z"/>
<path d="M1502 1172 l3 -106 68 -17 68 -17 -3 106 -3 106 -68 17 -68 17 3
-106z"/>
<path d="M2600 1260 l-65 -16 -3 -106 -3 -106 63 15 c35 9 67 19 71 23 4 4 6
52 5 106 l-3 100 -65 -16z"/>
<path d="M4240 1250 l-65 -16 -3 -106 -3 -106 63 15 c35 9 67 19 71 23 4 4 6
52 5 106 l-3 100 -65 -16z"/>
<path d="M752 1147 l3 -111 68 -17 68 -17 -3 111 -3 111 -68 17 -68 17 3 -111z"/>
<path d="M3350 1240 l-65 -16 -3 -111 -3 -111 63 15 c35 9 67 19 71 23 4 4 6
54 5 111 l-3 105 -65 -16z"/>
<path d="M1652 1132 l3 -106 50 -13 c79 -20 75 -25 75 90 l0 103 -65 16 -66
15 3 -105z"/>
<path d="M2453 1221 l-63 -14 0 -104 c0 -66 4 -103 11 -103 19 0 104 23 112
30 4 4 6 51 5 106 l-3 99 -62 -14z"/>
<path d="M12 1122 l3 -106 68 -17 68 -17 -3 106 -3 106 -68 17 -68 17 3 -106z"/>
<path d="M4090 1210 l-65 -16 -3 -106 -3 -106 63 15 c35 9 67 19 71 23 4 4 6
52 5 106 l-3 100 -65 -16z"/>
<path d="M902 1107 l3 -111 68 -17 68 -17 -3 111 -3 111 -68 17 -68 17 3 -111z"/>
<path d="M3200 1200 l-65 -16 -3 -111 -3 -111 63 15 c35 9 67 19 71 23 4 4 6
54 5 111 l-3 105 -65 -16z"/>
<path d="M1792 1092 l3 -106 68 -17 68 -17 -3 106 -3 106 -68 17 -68 17 3
-106z"/>
<path d="M2310 1180 l-65 -16 -3 -106 -3 -106 63 15 c35 9 67 19 71 23 4 4 6
52 5 106 l-3 100 -65 -16z"/>
<path d="M162 1082 l3 -106 68 -17 68 -17 -3 106 -3 106 -68 17 -68 17 3 -106z"/>
<path d="M3940 1170 l-65 -16 -3 -106 -3 -106 63 15 c35 9 67 19 71 23 4 4 6
52 5 106 l-3 100 -65 -16z"/>
<path d="M1052 1067 l3 -111 68 -17 68 -17 -3 111 -3 111 -68 17 -68 17 3
-111z"/>
<path d="M3050 1160 l-65 -16 -3 -111 -3 -111 63 15 c35 9 67 19 71 23 4 4 6
54 5 111 l-3 105 -65 -16z"/>
<path d="M1942 1052 l3 -106 68 -17 68 -17 -3 106 -3 106 -68 17 -68 17 3
-106z"/>
<path d="M2160 1140 l-65 -16 -3 -106 -3 -106 63 15 c35 9 67 19 71 23 4 4 6
52 5 106 l-3 100 -65 -16z"/>
<path d="M312 1042 l3 -106 68 -17 68 -17 -3 106 -3 106 -68 17 -68 17 3 -106z"/>
<path d="M3790 1130 l-65 -16 -3 -106 -3 -106 63 15 c35 9 67 19 71 23 4 4 6
52 5 106 l-3 100 -65 -16z"/>
<path d="M1202 1027 l3 -111 68 -17 68 -17 -3 111 -3 111 -68 17 -68 17 3
-111z"/>
<path d="M2900 1120 l-65 -16 -3 -111 -3 -111 63 15 c35 9 67 19 71 23 4 4 6
54 5 111 l-3 105 -65 -16z"/>
<path d="M462 1002 l3 -106 50 -13 c79 -20 75 -25 75 90 l0 103 -65 16 -66 15
3 -105z"/>
<path d="M3643 1091 l-63 -14 0 -104 c0 -66 4 -103 11 -103 19 0 104 23 112
30 4 4 6 51 5 106 l-3 99 -62 -14z"/>
<path d="M1352 987 l3 -111 68 -17 68 -17 -3 111 -3 111 -68 17 -68 17 3 -111z"/>
<path d="M2750 1080 l-65 -16 -3 -111 -3 -111 63 15 c35 9 67 19 71 23 4 4 6
54 5 111 l-3 105 -65 -16z"/>
<path d="M602 962 l3 -106 68 -17 68 -17 -3 106 -3 106 -68 17 -68 17 3 -106z"/>
<path d="M3500 1050 l-65 -16 -3 -106 -3 -106 63 15 c35 9 67 19 71 23 4 4 6
52 5 106 l-3 100 -65 -16z"/>
<path d="M1502 947 l3 -111 68 -17 68 -17 -3 111 -3 111 -68 17 -68 17 3 -111z"/>
<path d="M2600 1040 l-65 -16 -3 -111 -3 -111 63 15 c35 9 67 19 71 23 4 4 6
54 5 111 l-3 105 -65 -16z"/>
<path d="M4240 1030 l-65 -16 -3 -111 -3 -111 63 15 c35 9 67 19 71 23 4 4 6
54 5 111 l-3 105 -65 -16z"/>
<path d="M752 922 l3 -106 68 -17 68 -17 -3 106 -3 106 -68 17 -68 17 3 -106z"/>
<path d="M3350 1010 l-65 -16 -3 -106 -3 -106 63 15 c35 9 67 19 71 23 4 4 6
52 5 106 l-3 100 -65 -16z"/>
<path d="M1652 907 l3 -111 50 -13 c79 -20 75 -25 75 95 l0 108 -65 16 -66 15
3 -110z"/>
<path d="M2453 1001 l-63 -14 0 -109 c0 -69 4 -108 11 -108 19 0 104 23 112
30 4 4 6 54 5 111 l-3 104 -62 -14z"/>
<path d="M12 897 l3 -111 68 -17 68 -17 -3 111 -3 111 -68 17 -68 17 3 -111z"/>
<path d="M4090 990 l-65 -16 -3 -111 -3 -111 63 15 c35 9 67 19 71 23 4 4 6
54 5 111 l-3 105 -65 -16z"/>
<path d="M902 882 l3 -106 68 -17 68 -17 -3 106 -3 106 -68 17 -68 17 3 -106z"/>
<path d="M3200 970 l-65 -16 -3 -106 -3 -106 63 15 c35 9 67 19 71 23 4 4 6
52 5 106 l-3 100 -65 -16z"/>
<path d="M1792 867 l3 -111 68 -17 68 -17 -3 111 -3 111 -68 17 -68 17 3 -111z"/>
<path d="M2310 960 l-65 -16 -3 -111 -3 -111 63 15 c35 9 67 19 71 23 4 4 6
54 5 111 l-3 105 -65 -16z"/>
<path d="M162 857 l3 -111 68 -17 68 -17 -3 111 -3 111 -68 17 -68 17 3 -111z"/>
<path d="M3940 950 l-65 -16 -3 -111 -3 -111 63 15 c35 9 67 19 71 23 4 4 6
54 5 111 l-3 105 -65 -16z"/>
<path d="M1052 842 l3 -106 68 -17 68 -17 -3 106 -3 106 -68 17 -68 17 3 -106z"/>
<path d="M3050 930 l-65 -16 -3 -106 -3 -106 63 15 c35 9 67 19 71 23 4 4 6
52 5 106 l-3 100 -65 -16z"/>
<path d="M1942 827 l3 -111 68 -17 68 -17 -3 111 -3 111 -68 17 -68 17 3 -111z"/>
<path d="M2160 920 l-65 -16 -3 -111 -3 -111 63 15 c35 9 67 19 71 23 4 4 6
54 5 111 l-3 105 -65 -16z"/>
<path d="M312 817 l3 -111 68 -17 68 -17 -3 111 -3 111 -68 17 -68 17 3 -111z"/>
<path d="M3790 910 l-65 -16 -3 -111 -3 -111 63 15 c35 9 67 19 71 23 4 4 6
54 5 111 l-3 105 -65 -16z"/>
<path d="M1202 802 l3 -106 68 -17 68 -17 -3 106 -3 106 -68 17 -68 17 3 -106z"/>
<path d="M2900 890 l-65 -16 -3 -106 -3 -106 63 15 c35 9 67 19 71 23 4 4 6
52 5 106 l-3 100 -65 -16z"/>
<path d="M462 777 l3 -111 50 -13 c79 -20 75 -25 75 95 l0 108 -65 16 -66 15
3 -110z"/>
<path d="M3643 871 l-63 -14 0 -109 c0 -69 4 -108 11 -108 19 0 104 23 112 30
4 4 6 54 5 111 l-3 104 -62 -14z"/>
<path d="M1352 762 l3 -106 68 -17 68 -17 -3 106 -3 106 -68 17 -68 17 3 -106z"/>
<path d="M2750 850 l-65 -16 -3 -106 -3 -106 63 15 c35 9 67 19 71 23 4 4 6
52 5 106 l-3 100 -65 -16z"/>
<path d="M602 737 l3 -111 68 -17 68 -17 -3 111 -3 111 -68 17 -68 17 3 -111z"/>
<path d="M3500 830 l-65 -16 -3 -111 -3 -111 63 15 c35 9 67 19 71 23 4 4 6
54 5 111 l-3 105 -65 -16z"/>
<path d="M1502 722 l3 -106 68 -17 68 -17 -3 106 -3 106 -68 17 -68 17 3 -106z"/>
<path d="M2600 810 l-65 -16 -3 -106 -3 -106 63 15 c35 9 67 19 71 23 4 4 6
52 5 106 l-3 100 -65 -16z"/>
<path d="M4240 800 l-65 -16 -3 -106 -3 -106 63 15 c35 9 67 19 71 23 4 4 6
52 5 106 l-3 100 -65 -16z"/>
<path d="M752 697 l3 -111 68 -17 68 -17 -3 111 -3 111 -68 17 -68 17 3 -111z"/>
<path d="M3350 790 l-65 -16 -3 -111 -3 -111 63 15 c35 9 67 19 71 23 4 4 6
54 5 111 l-3 105 -65 -16z"/>
<path d="M1652 682 l3 -106 50 -13 c79 -20 75 -25 75 90 l0 103 -65 16 -66 15
3 -105z"/>
<path d="M2453 771 l-63 -14 0 -104 c0 -66 4 -103 11 -103 19 0 104 23 112 30
4 4 6 51 5 106 l-3 99 -62 -14z"/>
<path d="M12 672 l3 -106 68 -17 68 -17 -3 106 -3 106 -68 17 -68 17 3 -106z"/>
<path d="M4090 760 l-65 -16 -3 -106 -3 -106 63 15 c35 9 67 19 71 23 4 4 6
52 5 106 l-3 100 -65 -16z"/>
<path d="M902 657 l3 -111 68 -17 68 -17 -3 111 -3 111 -68 17 -68 17 3 -111z"/>
<path d="M3200 750 l-65 -16 -3 -111 -3 -111 63 15 c35 9 67 19 71 23 4 4 6
54 5 111 l-3 105 -65 -16z"/>
<path d="M1792 642 l3 -106 68 -17 68 -17 -3 106 -3 106 -68 17 -68 17 3 -106z"/>
<path d="M2310 730 l-65 -16 -3 -106 -3 -106 63 15 c35 9 67 19 71 23 4 4 6
52 5 106 l-3 100 -65 -16z"/>
<path d="M162 632 l3 -106 68 -17 68 -17 -3 106 -3 106 -68 17 -68 17 3 -106z"/>
<path d="M3940 720 l-65 -16 -3 -106 -3 -106 63 15 c35 9 67 19 71 23 4 4 6
52 5 106 l-3 100 -65 -16z"/>
<path d="M1052 617 l3 -111 68 -17 68 -17 -3 111 -3 111 -68 17 -68 17 3 -111z"/>
<path d="M3050 710 l-65 -16 -3 -111 -3 -111 63 15 c35 9 67 19 71 23 4 4 6
54 5 111 l-3 105 -65 -16z"/>
<path d="M1942 602 l3 -106 68 -17 68 -17 -3 106 -3 106 -68 17 -68 17 3 -106z"/>
<path d="M2160 690 l-65 -16 -3 -106 -3 -106 63 15 c35 9 67 19 71 23 4 4 6
52 5 106 l-3 100 -65 -16z"/>
<path d="M312 592 l3 -106 68 -17 68 -17 -3 106 -3 106 -68 17 -68 17 3 -106z"/>
<path d="M3790 680 l-65 -16 -3 -106 -3 -106 63 15 c35 9 67 19 71 23 4 4 6
52 5 106 l-3 100 -65 -16z"/>
<path d="M1202 577 l3 -111 68 -17 68 -17 -3 111 -3 111 -68 17 -68 17 3 -111z"/>
<path d="M2900 670 l-65 -16 -3 -111 -3 -111 63 15 c35 9 67 19 71 23 4 4 6
54 5 111 l-3 105 -65 -16z"/>
<path d="M462 552 l3 -106 50 -13 c79 -20 75 -25 75 90 l0 103 -65 16 -66 15
3 -105z"/>
<path d="M3643 641 l-63 -14 0 -104 c0 -66 4 -103 11 -103 19 0 104 23 112 30
4 4 6 51 5 106 l-3 99 -62 -14z"/>
<path d="M1352 537 l3 -111 68 -17 68 -17 -3 111 -3 111 -68 17 -68 17 3 -111z"/>
<path d="M2750 630 l-65 -16 -3 -111 -3 -111 63 15 c35 9 67 19 71 23 4 4 6
54 5 111 l-3 105 -65 -16z"/>
<path d="M602 512 l3 -106 68 -17 68 -17 -3 106 -3 106 -68 17 -68 17 3 -106z"/>
<path d="M3500 600 l-65 -16 -3 -106 -3 -106 63 15 c35 9 67 19 71 23 4 4 6
52 5 106 l-3 100 -65 -16z"/>
<path d="M1502 497 l3 -111 68 -17 68 -17 -3 111 -3 111 -68 17 -68 17 3 -111z"/>
<path d="M2600 590 l-65 -16 -3 -111 -3 -111 63 15 c35 9 67 19 71 23 4 4 6
54 5 111 l-3 105 -65 -16z"/>
<path d="M3940 500 c-201 -54 -635 -171 -965 -260 -330 -89 -656 -177 -725
-196 -69 -18 -132 -33 -140 -33 -8 1 14 9 50 18 l65 17 3 106 3 106 -68 -17
-68 -17 0 -110 0 -109 1113 -3 1112 -2 0 300 c0 165 -3 300 -7 299 -5 0 -172
-45 -373 -99z"/>
<path d="M752 472 l3 -106 68 -17 68 -17 -3 106 -3 106 -68 17 -68 17 3 -106z"/>
<path d="M3350 560 l-65 -16 -3 -106 -3 -106 63 15 c35 9 67 19 71 23 4 4 6
52 5 106 l-3 100 -65 -16z"/>
<path d="M1652 457 l3 -111 50 -13 c79 -20 75 -25 75 95 l0 108 -65 16 -66 15
3 -110z"/>
<path d="M2453 551 l-63 -14 0 -109 c0 -69 4 -108 11 -108 19 0 104 23 112 30
4 4 6 54 5 111 l-3 104 -62 -14z"/>
<path d="M0 280 l0 -280 1038 2 1037 3 0 109 0 110 -68 17 -68 17 3 -106 3
-106 65 -17 c36 -9 58 -17 50 -18 -8 0 -71 15 -140 33 -111 31 -763 206 -1620
437 -162 43 -296 79 -297 79 -2 0 -3 -126 -3 -280z"/>
<path d="M902 432 l3 -106 68 -17 68 -17 -3 106 -3 106 -68 17 -68 17 3 -106z"/>
<path d="M3200 520 l-65 -16 -3 -106 -3 -106 63 15 c35 9 67 19 71 23 4 4 6
52 5 106 l-3 100 -65 -16z"/>
<path d="M1792 417 l3 -111 68 -17 68 -17 -3 111 -3 111 -68 17 -68 17 3 -111z"/>
<path d="M2310 510 l-65 -16 -3 -111 -3 -111 63 15 c35 9 67 19 71 23 4 4 6
54 5 111 l-3 105 -65 -16z"/>
<path d="M1052 392 l3 -106 68 -17 68 -17 -3 106 -3 106 -68 17 -68 17 3 -106z"/>
<path d="M3050 480 l-65 -16 -3 -106 -3 -106 63 15 c35 9 67 19 71 23 4 4 6
52 5 106 l-3 100 -65 -16z"/>
<path d="M1942 377 l3 -111 68 -17 68 -17 -3 111 -3 111 -68 17 -68 17 3 -111z"/>
<path d="M2160 470 l-65 -16 -3 -111 -3 -111 63 15 c35 9 67 19 71 23 4 4 6
54 5 111 l-3 105 -65 -16z"/>
<path d="M1202 352 l3 -106 68 -17 68 -17 -3 106 -3 106 -68 17 -68 17 3 -106z"/>
<path d="M2900 440 l-65 -16 -3 -106 -3 -106 63 15 c35 9 67 19 71 23 4 4 6
52 5 106 l-3 100 -65 -16z"/>
<path d="M1352 312 l3 -106 68 -17 68 -17 -3 106 -3 106 -68 17 -68 17 3 -106z"/>
<path d="M2750 400 l-65 -16 -3 -106 -3 -106 63 15 c35 9 67 19 71 23 4 4 6
52 5 106 l-3 100 -65 -16z"/>
<path d="M1502 272 l3 -106 68 -17 68 -17 -3 106 -3 106 -68 17 -68 17 3 -106z"/>
<path d="M2600 360 l-65 -16 -3 -106 -3 -106 63 15 c35 9 67 19 71 23 4 4 6
52 5 106 l-3 100 -65 -16z"/>
<path d="M1652 232 l3 -106 50 -13 c79 -20 75 -25 75 90 l0 103 -65 16 -66 15
3 -105z"/>
<path d="M2453 321 l-63 -14 0 -104 c0 -66 4 -103 11 -103 19 0 104 23 112 30
4 4 6 51 5 106 l-3 99 -62 -14z"/>
<path d="M1792 192 l3 -106 68 -17 68 -17 -3 106 -3 106 -68 17 -68 17 3 -106z"/>
<path d="M2310 280 l-65 -16 -3 -106 -3 -106 63 15 c35 9 67 19 71 23 4 4 6
52 5 106 l-3 100 -65 -16z"/>
</g>
</svg>
